# xmcd
#
# Track frame offsets: 
#        150
#        15245
#        31472
#        46190
#        57525
#        76890
#        92470
#        104302
#        113872
#        125317
#
# Disc length: 1850 seconds
#
# Revision: 2
# Processed by: cddbd v1.4PL0 Copyright (c) Steve Scherf et al.
# Submitted via: ExactAudioCopy v0.90b4
#
DISCID=6f07380a
DTITLE=George Strait - Lead On
DYEAR=1994
DGENRE=Country
TTITLE0=You Can't Make A Heart Love Somebody
TTITLE1=Adalida
TTITLE2=I Met A Friend Of Yours Today
TTITLE3=Nobody Has To Get Hurt
TTITLE4=Down Lousiana Way
TTITLE5=Lead On
TTITLE6=What Am I Waiting For
TTITLE7=The Big One
TTITLE8=I'll Allways Be Loving You
TTITLE9=No One But you
EXTD=
EXTT0=
EXTT1=
EXTT2=
EXTT3=
EXTT4=
EXTT5=
EXTT6=
EXTT7=
EXTT8=
EXTT9=
PLAYORDER=
